<?xml version="1.0" encoding="utf-8"?>
<!-- Generator: Adobe Illustrator 21.0.2, SVG Export Plug-In . SVG Version: 6.00 Build 0)  -->
<svg version="1.1" id="Layer_1" xmlns="http://www.w3.org/2000/svg" xmlns:xlink="http://www.w3.org/1999/xlink" x="0px" y="0px"
	 viewBox="0 0 609.3 118.7" style="enable-background:new 0 0 609.3 118.7;" xml:space="preserve">
<style type="text/css">
	.st0{fill:#EE3124;}
	.st1{fill:#21205F;}
</style>
<g>
	<g>
		<g>
			<path class="st0" d="M78.2,33.4c5.4-5.5,11.4-9.7,18.3-12.6c6.6-2.9,13.6-4.2,20.9-4.2c7.2,0,14.2,1.4,21,4.2
				c6.7,3,12.7,7.1,18.1,12.6l0.2,0.2h15.7l-0.6-0.9c-6.3-8.8-14.3-15.7-24-20.8c-9.7-5-19.7-7.5-30.4-7.5
				c-10.6,0-20.8,2.5-30.5,7.5c-9.6,5-17.7,12-23.9,20.8l-0.6,0.9h15.8L78.2,33.4z"/>
		</g>
		<rect x="71.4" y="44.4" class="st1" width="13.7" height="66.8"/>
		<g>
			<path class="st1" d="M97.6,44.5V57h11.5v37.7c0,5.2,1.4,9.4,4.2,12.5c2.7,3.3,6.4,4.9,11,5c4.6,0.1,8.7-0.9,12.1-3l0.2-0.1v-0.2
				l3.3-12.7l-0.8,0.5c-3.7,2.2-7,3.3-10.1,3.3c-4.3,0-6.4-2.5-6.4-7.5V57h14V44.5h-14V23.6l-13.4,7.2v13.7H97.6z"/>
		</g>
		<rect x="150" y="44.4" class="st1" width="13.8" height="66.8"/>
		<g>
			<path class="st1" d="M63.6,54.9l-0.3-0.2C57,47,49.1,43.3,39.7,43.3c-9.9,0-18.1,3-24.6,9C8.2,58.7,4.7,67.2,4.7,77.9
				c0,10.7,3.5,19.2,10.4,25.6c6.4,6,14.6,9,24.6,9c9.4,0,17.4-3.8,23.6-11.3l0.3-0.2l-7.8-9.3l-0.3,0.3c-5,5-10.4,7.5-16.2,7.5
				c-6,0-11.1-2-15-6.1c-4-4-5.9-9.1-5.9-15.4c0-6.2,1.9-11.4,5.9-15.5c3.9-3.9,8.9-6,15-6c5.8,0,11.2,2.6,16.2,7.6l0.3,0.3
				L63.6,54.9z"/>
		</g>
	</g>
	<g>
		<polygon class="st0" points="230.5,111.4 228.2,111.4 205.4,45.7 207.5,45.7 229.3,108.8 251.2,45.7 253.2,45.7 		"/>
		<path class="st0" d="M207.1,46.3l22.2,64.3l22.2-64.3h0.8L230,110.8h-1.4l-22.4-64.5H207.1z M250.7,45.1l-21.4,61.9l-21.4-61.9
			h-3.4l23.1,66.4l0.1,0.4h3.1L254,45.1H250.7z"/>
		<polygon class="st1" points="263.3,111 263.3,45.7 298.3,45.7 298.3,47.6 265.3,47.6 265.3,75.3 285.8,75.3 285.8,77.1 
			265.3,77.1 265.3,109.1 299.6,109.1 299.6,111 		"/>
		<path class="st1" d="M263.9,46.3v64.1h35.2v-0.7h-34.3V76.5h20.4v-0.7h-20.4V47h32.9v-0.7H263.9z M262.7,111.6V45.1h36.1v3h-32.9
			v26.5h20.4v3h-20.4v30.8h34.3v3H262.7z"/>
		<polygon class="st1" points="349.1,111 310.6,48.8 310.6,111 308.5,111 308.5,45.7 311,45.7 349.4,107.7 349.4,45.7 351.4,45.7 
			351.4,111 		"/>
		<path class="st1" d="M309.1,46.3v64.1h0.9V46.7l39.4,63.7h1.4V46.3H350v63.5l-39.3-63.5H309.1z M308,111.6V45.1h3.3l0.2,0.3
			l37.3,60.3V45.1h3.2v66.4h-3.2l-0.2-0.3l-37.4-60.5v60.7H308z"/>
		<polygon class="st1" points="383.5,47.6 383.5,111 381.4,111 381.4,47.6 360.4,47.6 360.4,45.7 404.4,45.7 404.4,47.6 		"/>
		<path class="st1" d="M361,46.3V47h21v63.4h0.9V47h21v-0.7H361z M359.8,48.2v-3H405v3h-21v63.4h-3.2V48.2H359.8z"/>
		<g>
			<path class="st1" d="M435.3,112c-14.4,0-21.9-8-21.9-25.1V45.7h2.1v41.2c0,15.8,6.7,23.2,19.9,23.2c13.2,0,19.9-7.4,19.9-23.2
				V45.7h2.1v41.2C457.2,104,449.5,112,435.3,112"/>
			<path class="st1" d="M414,46.3v40.6c0,16.5,7,24.5,21.3,24.5c14.2,0,21.3-8.2,21.3-24.5V46.3h-0.9v40.6c0,16-6.7,23.8-20.5,23.8
				c-13.8,0-20.4-7.8-20.4-23.8V46.3H414z M412.8,86.9V45.1h3.2v41.8c0,15.2,6.3,22.6,19.3,22.6c13,0,19.3-7.4,19.3-22.6V45.1h3.2
				v41.8c0,17-7.6,25.7-22.5,25.7C420.4,112.6,412.8,104,412.8,86.9"/>
			<path class="st1" d="M490,47.6h-16.5v31.6h15.3c13.9,0,20.7-4.7,20.7-16.1C509.5,51.4,501.9,47.6,490,47.6 M510.9,111h-2.4
				l-15.8-30.1c-1.4,0.2-2.8,0.2-4.4,0.2h-14.9V111h-2.1V45.7h18.6c12.7,0,21.5,4.3,21.5,17.3c0,10.3-5.2,16.1-16.5,17.7L510.9,111z
				"/>
			<path class="st1" d="M474,48.2v30.5h14.7c13.9,0,20.1-4.8,20.1-15.6c0-10.3-5.8-14.9-18.9-14.9H474z M472.9,79.8V47H490
				C503.7,47,510,52.1,510,63c0,11.4-6.8,16.7-21.3,16.7H472.9z M472,46.3v64.1h0.9V80.5h15.5c1.6,0,2.9,0,4.3-0.2l0.4-0.1
				l15.8,30.2h1.1l-15.9-30.2l0.8-0.1c10.9-1.5,16-7,16-17.1c0-11.2-6.8-16.7-20.9-16.7H472z M470.8,111.6V45.1h19.2
				c14.8,0,22,5.8,22,17.8c0,10.4-5.3,16.4-16.2,18.2l16,30.4h-3.7l-15.7-30.1c-1.3,0.1-2.6,0.1-4.1,0.1H474v29.9H470.8z"/>
		</g>
		<polygon class="st1" points="523.1,111 523.1,45.7 558,45.7 558,47.6 525.1,47.6 525.1,75.3 545.5,75.3 545.5,77.1 525.1,77.1 
			525.1,109.1 559.4,109.1 559.4,111 		"/>
		<path class="st1" d="M523.6,46.3v64.1h35.2v-0.7h-34.3V76.5h20.4v-0.7h-20.4V47h32.9v-0.7H523.6z M522.5,111.6V45.1h36.1v3h-32.9
			v26.5h20.4v3h-20.4v30.8H560v3H522.5z"/>
		<g>
			<path class="st1" d="M585.6,112c-8.6,0-14.8-2.8-20.2-7l1.1-1.5c5.6,4.3,11,6.7,19.1,6.7c9.5,0,17.2-4.8,17.2-15
				c0-8.3-4.5-12-18.3-17.3c-14.1-5.3-18-9.1-18-17.6c0-8.5,6.3-15.7,18.7-15.7c7.8,0,13.7,2.4,18.6,5.7l-1.1,1.6
				c-4.7-3.2-10-5.5-17.5-5.5c-11.6,0-16.6,6.6-16.6,13.7c0,7.6,3.4,11,17.1,16.1C600,81.6,605,86,605,95.1
				C605,106.2,596.6,112,585.6,112"/>
			<path class="st1" d="M566.7,104.4l-0.4,0.6c5.8,4.5,12,6.5,19.3,6.5c11.6,0,18.8-6.2,18.8-16.3c0-8.6-4.4-12.9-18.8-18.3
				c-13.7-5.1-17.5-8.7-17.5-16.7c0-6.6,4.5-14.3,17.2-14.3c6.5,0,11.9,1.6,17.4,5.3l0.4-0.6c-5.5-3.6-11.2-5.3-17.7-5.3
				c-11,0-18.2,5.9-18.2,15.1c0,8.2,3.8,11.9,17.6,17.1c14.5,5.5,18.7,9.5,18.7,17.8c0,9.6-6.8,15.6-17.8,15.6
				C578.4,110.8,572.9,108.9,566.7,104.4 M564.7,105.1l1.8-2.4l0.5,0.4c6.1,4.7,11.5,6.6,18.8,6.6c8.1,0,16.7-3.8,16.7-14.4
				c0-7.8-3.9-11.4-17.9-16.7c-14.3-5.4-18.4-9.5-18.4-18.2c0-9.9,7.6-16.2,19.3-16.2c7,0,13,1.8,18.9,5.8l0.5,0.3l-1.8,2.5
				l-0.5-0.3c-3.7-2.5-9-5.4-17.2-5.4c-11.8,0-16,7.1-16,13.1c0,6.9,2.5,10.3,16.7,15.6c14.8,5.6,19.6,10.3,19.6,19.4
				c0,10.6-7.8,17.5-20,17.5c-7.8,0-14.4-2.3-20.5-7.1L564.7,105.1z"/>
		</g>
	</g>
</g>
</svg>
