<?xml version="1.0" encoding="utf-8"?>
<!-- Generator: Adobe Illustrator 21.0.2, SVG Export Plug-In . SVG Version: 6.00 Build 0)  -->
<svg version="1.1" id="Layer_1" xmlns="http://www.w3.org/2000/svg" xmlns:xlink="http://www.w3.org/1999/xlink" x="0px" y="0px"
	 viewBox="0 0 180 118.7" style="enable-background:new 0 0 180 118.7;" xml:space="preserve">
<style type="text/css">
	.st0{fill:#EE3124;}
	.st1{fill:#21205F;}
</style>
<g>
	<g>
		<path class="st0" d="M78.2,33.4c5.4-5.5,11.4-9.7,18.3-12.6c6.6-2.9,13.6-4.2,20.9-4.2c7.2,0,14.2,1.4,21,4.2
			c6.7,3,12.7,7.1,18.1,12.6l0.2,0.2h15.7l-0.6-0.9c-6.3-8.8-14.3-15.7-24-20.8c-9.7-5-19.7-7.5-30.4-7.5c-10.6,0-20.8,2.5-30.5,7.5
			c-9.6,5-17.7,12-23.9,20.8l-0.6,0.9h15.8L78.2,33.4z"/>
	</g>
	<rect x="71.4" y="44.4" class="st1" width="13.7" height="66.8"/>
	<g>
		<path class="st1" d="M97.6,44.5V57h11.5v37.7c0,5.2,1.4,9.4,4.2,12.5c2.7,3.3,6.4,4.9,11,5s8.7-0.9,12.1-3l0.2-0.1v-0.2l3.3-12.7
			l-0.8,0.5c-3.7,2.2-7,3.3-10.1,3.3c-4.3,0-6.4-2.5-6.4-7.5V57h14V44.5h-14V23.6l-13.4,7.2v13.7H97.6z"/>
	</g>
	<rect x="150" y="44.4" class="st1" width="13.8" height="66.8"/>
	<g>
		<path class="st1" d="M63.6,54.9l-0.3-0.2C57,47,49.1,43.3,39.7,43.3c-9.9,0-18.1,3-24.6,9C8.2,58.7,4.7,67.2,4.7,77.9
			s3.5,19.2,10.4,25.6c6.4,6,14.6,9,24.6,9c9.4,0,17.4-3.8,23.6-11.3l0.3-0.2l-7.8-9.3L55.5,92c-5,5-10.4,7.5-16.2,7.5
			c-6,0-11.1-2-15-6.1c-4-4-5.9-9.1-5.9-15.4c0-6.2,1.9-11.4,5.9-15.5c3.9-3.9,8.9-6,15-6c5.8,0,11.2,2.6,16.2,7.6l0.3,0.3
			L63.6,54.9z"/>
	</g>
</g>
</svg>
